# xmcd
#
# Track frame offsets:
#	150
#	23690
#	57934
#	72238
#	107680
#	121085
#	144232
#	157839
#	188480
#	205217
#	225228
#	248360
#	260532
#	296478
#
# Disc length: 4117 seconds
#
# Revision: 0
# Processed by: cddbd v1.5.2PL0 Copyright (c) Steve Scherf et al.
# Submitted via: audiograbber 1.83.01
#
DISCID=ac10130e
DTITLE=Eddy Clearwater - Blues Hang Out
DYEAR=1989
DGENRE=Blues
TTITLE0=Blues Hang Out
TTITLE1=I Came Up The Hard Way
TTITLE2=Set It Out
TTITLE3=Stromy Monday Blues
TTITLE4=Boogie Woogie Baby
TTITLE5=Blues For Breakfast
TTITLE6=Darling I Miss You So
TTITLE7=Chicago Daley Blues
TTITLE8=That's My Baby
TTITLE9=You Upset Me Baby
TTITLE10=I Don't Know Why
TTITLE11=Hound Dog
TTITLE12=Somebody Please Help Me
TTITLE13=Lay My Guitar Down
EXTD=
EXTT0=
EXTT1=
EXTT2=
EXTT3=
EXTT4=
EXTT5=
EXTT6=
EXTT7=
EXTT8=
EXTT9=
EXTT10=
EXTT11=
EXTT12=
EXTT13=
PLAYORDER=
